<mxfile host="app.diagrams.net" modified="2023-11-27T17:22:22.100Z" agent="Mozilla/5.0 (Windows NT 6.2; Win64; x64; rv:109.0) Gecko/20100101 Firefox/115.0" etag="We8ULYOLnXohPpk_u-q8" version="22.1.4" type="device">
  <diagram name="Seite-1" id="2yb3nwsJhWshQLtn_wB8">
    <mxGraphModel dx="1121" dy="1719" grid="1" gridSize="10" guides="1" tooltips="1" connect="1" arrows="1" fold="1" page="1" pageScale="1" pageWidth="827" pageHeight="1169" math="0" shadow="0">
      <root>
        <mxCell id="0" />
        <mxCell id="1" parent="0" />
        <mxCell id="X7gj1l4jZisrPeL8IL18-72" value="" style="rounded=1;whiteSpace=wrap;html=1;fillColor=none;" parent="1" vertex="1">
          <mxGeometry x="457.5" y="36.5" width="282.5" height="48" as="geometry" />
        </mxCell>
        <mxCell id="X7gj1l4jZisrPeL8IL18-66" value="" style="rounded=1;whiteSpace=wrap;html=1;fillColor=none;" parent="1" vertex="1">
          <mxGeometry x="115.5" y="-7.5" width="85" height="35" as="geometry" />
        </mxCell>
        <mxCell id="X7gj1l4jZisrPeL8IL18-61" value="" style="rounded=1;whiteSpace=wrap;html=1;fillColor=none;" parent="1" vertex="1">
          <mxGeometry x="219" y="92.5" width="220" height="45" as="geometry" />
        </mxCell>
        <mxCell id="X7gj1l4jZisrPeL8IL18-59" value="" style="rounded=1;whiteSpace=wrap;html=1;fillColor=none;" parent="1" vertex="1">
          <mxGeometry x="219.5" y="-12.5" width="220" height="45" as="geometry" />
        </mxCell>
        <mxCell id="X7gj1l4jZisrPeL8IL18-60" value="" style="rounded=1;whiteSpace=wrap;html=1;fillColor=none;" parent="1" vertex="1">
          <mxGeometry x="219" y="39.5" width="220" height="45" as="geometry" />
        </mxCell>
        <mxCell id="X7gj1l4jZisrPeL8IL18-15" value="" style="rounded=1;whiteSpace=wrap;html=1;rotation=-90;fillColor=none;fontFamily=Tahoma;fontStyle=0" parent="1" vertex="1">
          <mxGeometry x="145" y="204" width="270" height="350" as="geometry" />
        </mxCell>
        <mxCell id="X7gj1l4jZisrPeL8IL18-1" value="Feature 1&lt;br style=&quot;font-size: 14px;&quot;&gt;" style="text;html=1;strokeColor=none;fillColor=none;align=center;verticalAlign=middle;whiteSpace=wrap;rounded=0;fontSize=14;labelBackgroundColor=#B5739D;fontFamily=Tahoma;fontStyle=0" parent="1" vertex="1">
          <mxGeometry x="120" y="249" width="70" height="40" as="geometry" />
        </mxCell>
        <mxCell id="X7gj1l4jZisrPeL8IL18-2" value="Feature 2" style="text;html=1;strokeColor=none;fillColor=none;align=center;verticalAlign=middle;whiteSpace=wrap;rounded=0;fontSize=14;labelBackgroundColor=#00CC66;fontFamily=Tahoma;fontStyle=0" parent="1" vertex="1">
          <mxGeometry x="240" y="249" width="80" height="40" as="geometry" />
        </mxCell>
        <mxCell id="X7gj1l4jZisrPeL8IL18-3" value="Feature 3" style="text;html=1;strokeColor=none;fillColor=none;align=center;verticalAlign=middle;whiteSpace=wrap;rounded=0;fontSize=14;labelBackgroundColor=#FF9933;fontFamily=Tahoma;fontStyle=0" parent="1" vertex="1">
          <mxGeometry x="360" y="249" width="100" height="40" as="geometry" />
        </mxCell>
        <mxCell id="X7gj1l4jZisrPeL8IL18-4" value="Feature 1&lt;br style=&quot;font-size: 14px;&quot;&gt;" style="text;html=1;strokeColor=none;fillColor=none;align=center;verticalAlign=middle;whiteSpace=wrap;rounded=0;fontSize=14;labelBackgroundColor=#B5739D;fontFamily=Tahoma;fontStyle=0" parent="1" vertex="1">
          <mxGeometry x="120" y="329" width="70" height="40" as="geometry" />
        </mxCell>
        <mxCell id="X7gj1l4jZisrPeL8IL18-5" value="Feature 2" style="text;html=1;strokeColor=none;fillColor=none;align=center;verticalAlign=middle;whiteSpace=wrap;rounded=0;fontSize=14;labelBackgroundColor=#00CC66;fontFamily=Tahoma;fontStyle=0" parent="1" vertex="1">
          <mxGeometry x="370" y="329" width="80" height="40" as="geometry" />
        </mxCell>
        <mxCell id="X7gj1l4jZisrPeL8IL18-6" value="Feature 3" style="text;html=1;strokeColor=none;fillColor=none;align=center;verticalAlign=middle;whiteSpace=wrap;rounded=0;fontSize=14;labelBackgroundColor=#FF9933;fontFamily=Tahoma;fontStyle=0" parent="1" vertex="1">
          <mxGeometry x="230" y="329" width="100" height="40" as="geometry" />
        </mxCell>
        <mxCell id="X7gj1l4jZisrPeL8IL18-7" value="Feature 1&lt;br style=&quot;font-size: 14px;&quot;&gt;" style="text;html=1;strokeColor=none;fillColor=none;align=center;verticalAlign=middle;whiteSpace=wrap;rounded=0;fontSize=14;labelBackgroundColor=#B5739D;fontFamily=Tahoma;fontStyle=0" parent="1" vertex="1">
          <mxGeometry x="245" y="399" width="70" height="40" as="geometry" />
        </mxCell>
        <mxCell id="X7gj1l4jZisrPeL8IL18-8" value="Feature 2" style="text;html=1;strokeColor=none;fillColor=none;align=center;verticalAlign=middle;whiteSpace=wrap;rounded=0;fontSize=14;labelBackgroundColor=#00CC66;fontFamily=Tahoma;fontStyle=0" parent="1" vertex="1">
          <mxGeometry x="115" y="399" width="80" height="40" as="geometry" />
        </mxCell>
        <mxCell id="X7gj1l4jZisrPeL8IL18-9" value="Feature 3" style="text;html=1;strokeColor=none;fillColor=none;align=center;verticalAlign=middle;whiteSpace=wrap;rounded=0;fontSize=14;labelBackgroundColor=#FF9933;fontFamily=Tahoma;fontStyle=0" parent="1" vertex="1">
          <mxGeometry x="360" y="399" width="100" height="40" as="geometry" />
        </mxCell>
        <mxCell id="X7gj1l4jZisrPeL8IL18-12" value="..." style="text;html=1;strokeColor=none;fillColor=none;align=center;verticalAlign=middle;whiteSpace=wrap;rounded=0;fontSize=14;rotation=90;fontStyle=0;fontFamily=Tahoma;" parent="1" vertex="1">
          <mxGeometry x="130" y="469" width="60" height="30" as="geometry" />
        </mxCell>
        <mxCell id="X7gj1l4jZisrPeL8IL18-13" value="..." style="text;html=1;strokeColor=none;fillColor=none;align=center;verticalAlign=middle;whiteSpace=wrap;rounded=0;fontSize=14;rotation=90;fontStyle=0;fontFamily=Tahoma;" parent="1" vertex="1">
          <mxGeometry x="384" y="469" width="60" height="30" as="geometry" />
        </mxCell>
        <mxCell id="X7gj1l4jZisrPeL8IL18-14" value="..." style="text;html=1;strokeColor=none;fillColor=none;align=center;verticalAlign=middle;whiteSpace=wrap;rounded=0;fontSize=14;rotation=90;fontStyle=0;fontFamily=Tahoma;" parent="1" vertex="1">
          <mxGeometry x="252.5" y="469" width="60" height="30" as="geometry" />
        </mxCell>
        <mxCell id="X7gj1l4jZisrPeL8IL18-16" value="&lt;font style=&quot;font-size: 16px;&quot;&gt;Permutations&lt;/font&gt;" style="text;html=1;strokeColor=none;fillColor=none;align=center;verticalAlign=middle;whiteSpace=wrap;rounded=0;fontFamily=Tahoma;fontStyle=0" parent="1" vertex="1">
          <mxGeometry x="0.5" y="189" width="107.5" height="30" as="geometry" />
        </mxCell>
        <mxCell id="X7gj1l4jZisrPeL8IL18-17" value="&lt;font style=&quot;font-size: 14px;&quot;&gt;1&lt;/font&gt;" style="text;html=1;strokeColor=none;fillColor=none;align=center;verticalAlign=middle;whiteSpace=wrap;rounded=0;fontFamily=Tahoma;fontStyle=0" parent="1" vertex="1">
          <mxGeometry x="20" y="254" width="60" height="30" as="geometry" />
        </mxCell>
        <mxCell id="X7gj1l4jZisrPeL8IL18-18" value="&lt;font style=&quot;font-size: 14px;&quot;&gt;2&lt;/font&gt;" style="text;html=1;strokeColor=none;fillColor=none;align=center;verticalAlign=middle;whiteSpace=wrap;rounded=0;fontFamily=Tahoma;fontStyle=0" parent="1" vertex="1">
          <mxGeometry x="20" y="334" width="60" height="30" as="geometry" />
        </mxCell>
        <mxCell id="X7gj1l4jZisrPeL8IL18-19" value="&lt;font style=&quot;font-size: 14px;&quot;&gt;3&lt;/font&gt;" style="text;html=1;strokeColor=none;fillColor=none;align=center;verticalAlign=middle;whiteSpace=wrap;rounded=0;fontFamily=Tahoma;fontStyle=0" parent="1" vertex="1">
          <mxGeometry x="20" y="404" width="60" height="30" as="geometry" />
        </mxCell>
        <mxCell id="X7gj1l4jZisrPeL8IL18-20" value="&lt;font style=&quot;font-size: 14px;&quot;&gt;n&lt;/font&gt;" style="text;html=1;strokeColor=none;fillColor=none;align=center;verticalAlign=middle;whiteSpace=wrap;rounded=0;fontFamily=Tahoma;fontStyle=0" parent="1" vertex="1">
          <mxGeometry x="20" y="471.5" width="60" height="25" as="geometry" />
        </mxCell>
        <mxCell id="X7gj1l4jZisrPeL8IL18-21" value="Marginal Contribution of each Feature to the Prediction" style="text;html=1;strokeColor=none;fillColor=none;align=center;verticalAlign=middle;whiteSpace=wrap;rounded=0;fontSize=16;fontFamily=Tahoma;fontStyle=0" parent="1" vertex="1">
          <mxGeometry x="520" y="159" width="160" height="60" as="geometry" />
        </mxCell>
        <mxCell id="X7gj1l4jZisrPeL8IL18-25" value="" style="rounded=0;whiteSpace=wrap;html=1;fillColor=#B5739D;fontFamily=Tahoma;fontStyle=0" parent="1" vertex="1">
          <mxGeometry x="520" y="259" width="70" height="20" as="geometry" />
        </mxCell>
        <mxCell id="X7gj1l4jZisrPeL8IL18-26" value="" style="rounded=0;whiteSpace=wrap;html=1;fillColor=#00CC66;fontFamily=Tahoma;fontStyle=0" parent="1" vertex="1">
          <mxGeometry x="590" y="259" width="50" height="20" as="geometry" />
        </mxCell>
        <mxCell id="X7gj1l4jZisrPeL8IL18-27" value="" style="rounded=0;whiteSpace=wrap;html=1;fillColor=#FF9933;fontFamily=Tahoma;fontStyle=0" parent="1" vertex="1">
          <mxGeometry x="640" y="259" width="40" height="20" as="geometry" />
        </mxCell>
        <mxCell id="X7gj1l4jZisrPeL8IL18-29" value="" style="rounded=0;whiteSpace=wrap;html=1;fillColor=#B5739D;fontFamily=Tahoma;fontStyle=0" parent="1" vertex="1">
          <mxGeometry x="520" y="339" width="50" height="20" as="geometry" />
        </mxCell>
        <mxCell id="X7gj1l4jZisrPeL8IL18-30" value="" style="rounded=0;whiteSpace=wrap;html=1;fillColor=#00CC66;fontFamily=Tahoma;fontStyle=0" parent="1" vertex="1">
          <mxGeometry x="620" y="339" width="60" height="20" as="geometry" />
        </mxCell>
        <mxCell id="X7gj1l4jZisrPeL8IL18-31" value="" style="rounded=0;whiteSpace=wrap;html=1;fillColor=#FF9933;fontFamily=Tahoma;fontStyle=0" parent="1" vertex="1">
          <mxGeometry x="570" y="339" width="50" height="20" as="geometry" />
        </mxCell>
        <mxCell id="X7gj1l4jZisrPeL8IL18-32" value="" style="rounded=0;whiteSpace=wrap;html=1;fillColor=#B5739D;fontFamily=Tahoma;fontStyle=0" parent="1" vertex="1">
          <mxGeometry x="560" y="409" width="80" height="20" as="geometry" />
        </mxCell>
        <mxCell id="X7gj1l4jZisrPeL8IL18-33" value="" style="rounded=0;whiteSpace=wrap;html=1;fillColor=#00CC66;fontFamily=Tahoma;fontStyle=0" parent="1" vertex="1">
          <mxGeometry x="520" y="409" width="40" height="20" as="geometry" />
        </mxCell>
        <mxCell id="X7gj1l4jZisrPeL8IL18-34" value="" style="rounded=0;whiteSpace=wrap;html=1;fillColor=#FF9933;fontFamily=Tahoma;fontStyle=0" parent="1" vertex="1">
          <mxGeometry x="640" y="409" width="40" height="20" as="geometry" />
        </mxCell>
        <mxCell id="X7gj1l4jZisrPeL8IL18-35" value="" style="shape=flexArrow;endArrow=classic;html=1;rounded=0;width=14;endSize=4.33;" parent="1" edge="1">
          <mxGeometry width="50" height="50" relative="1" as="geometry">
            <mxPoint x="599.71" y="519" as="sourcePoint" />
            <mxPoint x="600" y="559" as="targetPoint" />
          </mxGeometry>
        </mxCell>
        <mxCell id="X7gj1l4jZisrPeL8IL18-36" value="&lt;font style=&quot;font-size: 14px;&quot;&gt;Average&lt;/font&gt;" style="text;html=1;strokeColor=none;fillColor=none;align=center;verticalAlign=middle;whiteSpace=wrap;rounded=0;" parent="1" vertex="1">
          <mxGeometry x="440" y="579" width="60" height="30" as="geometry" />
        </mxCell>
        <mxCell id="X7gj1l4jZisrPeL8IL18-37" value="" style="rounded=0;whiteSpace=wrap;html=1;fillColor=#B5739D;fontFamily=Tahoma;fontStyle=0" parent="1" vertex="1">
          <mxGeometry x="520" y="584" width="70" height="20" as="geometry" />
        </mxCell>
        <mxCell id="X7gj1l4jZisrPeL8IL18-38" value="" style="rounded=0;whiteSpace=wrap;html=1;fillColor=#00CC66;fontFamily=Tahoma;fontStyle=0" parent="1" vertex="1">
          <mxGeometry x="590" y="584" width="50" height="20" as="geometry" />
        </mxCell>
        <mxCell id="X7gj1l4jZisrPeL8IL18-39" value="" style="rounded=0;whiteSpace=wrap;html=1;fillColor=#FF9933;fontFamily=Tahoma;fontStyle=0" parent="1" vertex="1">
          <mxGeometry x="640" y="584" width="40" height="20" as="geometry" />
        </mxCell>
        <mxCell id="X7gj1l4jZisrPeL8IL18-43" value="..." style="text;html=1;strokeColor=none;fillColor=none;align=center;verticalAlign=middle;whiteSpace=wrap;rounded=0;fontSize=14;rotation=90;fontStyle=0;fontFamily=Tahoma;" parent="1" vertex="1">
          <mxGeometry x="574" y="469" width="60" height="30" as="geometry" />
        </mxCell>
        <mxCell id="X7gj1l4jZisrPeL8IL18-44" value="" style="shape=image;verticalLabelPosition=bottom;labelBackgroundColor=default;verticalAlign=top;aspect=fixed;imageAspect=0;image=data:image/png,iVBORw0KGgoAAAANSUhEUgAAArgAAADcCAYAAACbOtJKAAAgAElEQVR4nOzde3wTVf4//pc/pPsBXZOtVOFj66ZyKZdICyIFLFARDRcFqUvjpQgqa1nQjbIoIksDi9oPLC5GBex6g1ZXwqUuqwjZRVCplotLaxughRWiVeDT1iX1w2WJ3+75/cFjZmeSSTJpkxbi6/l48HiQycyZc87c3j1zzsklQggBIiIiIqI48f+1dwaIiIiIiKKJAS4RERERxRUGuEREREQUVxjgEhEREVFcYYBLRERERHGFAS4RERERxRUGuEREREQUVxjgEhEREVFcYYBLRD8ahw8fbu8sEBFRG2CAS0RxzePxYOnSpbjhhhvw29/+tr2zQ0REbeDS9s4AEVEsXX311ZgyZQpOnz6Nmpqa9s4OERG1AQa4RBTXOnXqhE6dOrV3Ni44Z8+eRWNjY4u3v/TSS9GtW7co5ogudo2NjbjiiiuQkJDQqnSOHz9+UZxbPp8P//u//4tOnTqhS5cuYdc/fvw4/t//+3+4+uqrg9ZRU1MTEhISLrp7VmvzHW77lpwTDHBj6Pjx4+jcuTMMBkNE23355Zf49NNPcdlll2H06NHy9nv37sWNN94Yi6zGjPQA1XPx/9j4fD7s2rULDQ0NGDdu3EV3Q6OL25YtW/Dggw8CAG666SYkJiaGXP+7777DwYMHcfLkSXlZRUUFUlNTY5pPuji8//77eOedd/D222+3Kp1f/vKXGD16NKxWa9B1mpqa8Nlnn+HMmTPyM7KhoQE+nw/XXHNNq/av169+9Sts3LgRgwYNwuzZszF69Oiw2+zZswfFxcXYuXMnpk6dit///vcB6/h8PowaNQpbt25FUlJSLLIedRUVFXjqqafw3nvvhVzv4MGD2Lt3L/r27YtBgwYBACorK5GRkRG23K+88go6duwYWTcz0Qo9evQQBoNB/vf6668HXffcuXOiW7du8rrJycli06ZNrdl9i9TX14uRI0eKVatWxWwfy5Ytk8tZUFCge7vS0lKRmpoqunbtKvLy8kReXp4YOXKkmDFjhti3b59ITEyMWZ5ba9WqVWLkyJGivr5eCCHEpk2bRGJiojAYDCI3N7fN8tEWxzca9u3bJ1JTU8WSJUvE1VdfLUaNGhVy/e3bt4v/+Z//aaPcxaeCgoI2PRcvBvfee2/E16jX6xX3339/xPc3il/V1dUiNTVVnDt3rlXpLF68WEyfPj3kOnPmzJHvnUuWLBH9+/cXBQUFIiUlRdTV1bVq/3q9/vrrwmAwiO3bt4dcr6SkRJSUlAQs37lzZ8iYaefOnWLQoEGtrs+2cPLkSZGamiqOHDkSdJ1Dhw6J1NRU8Ytf/EKsWbNGTJkyRfTv31/YbDbV8Q5X7jFjxoi1a9fqzlurAlxJ9+7dRWJiohgzZkzQdV5//XWRlpbW7jfFtWvXCoPBINLT02O6n/r6+ojKOm/ePGEwGMScOXMCvispKZGDxVjbsGGDKC8vj3i79PR0YTAYAk4+s9kck6AiWD7b6vi2VlpamnysU1JSwga4iYmJolu3bm2RtbjFADfQuXPn5Gv3+eefj2jbkpISkZaWFqOc0cVk+PDhIRu49Dhy5IhISkoSJ0+eDLrOvffeK8aMGaMKgM6dOyfS0tJC3vP37NmjK1j84osvdOW1oKAg7PP44MGDwmAwiOHDh2t+Hy4+mDZt2kXxB+T06dM14xZJdXW1SExMDPhjoKioSDNmCFXuI0eOiG7duoU8R5SiMovC5ZdfjgkTJqC8vBxHjx7VXOfDDz9ETk5ONHbXKpMmTcL06dOxfPnymO4nklcLb731FlauXIlp06ZpvrLIy8trs7rbunUrvvrqq4i3W758OaZPn45Jkyaplnfo0CFaWVMJls+2Or6t4Xa7ceLECfkVzddff40PP/ww5DZOpxMff/xxW2SPfkQSEhLw5ptvokOHDnj22WdRUVGhe9u8vDwMHz4cZWVlMcwhXejef/99/OMf/0BeXl6r0vnd736H8ePHw2g0an6/e/dubN68GStXrlT1X01ISEBOTk7I7nvLli3DoUOHwubh/vvvjzzjQfTu3Ruvv/46Nm7c2KLtZ8yYgZdffhlerzdqeYq2o0ePYv369Zg5c2bQdZ566ilMmDABN998s2r5tGnTAJzvHqUUqtypqakYOHAgnn32WV35i9o0YVJ/mdWrVwd898033yAhIQEdO3aM1u5aLCEhAcuWLQuo7Pbi8/nw5JNPAgAWLlwYdD2bzdYmedm5c2eLtr355puxbNmyVg8u0CNUPi+04xsto0ePRs+ePds7GxSHBgwYgPnz56O5uRkPPPAAfD6f7m1ffPFFXH/99THMHV3oSkpKMH78+Fbd+30+H/7yl7+E7Hf7zjvvAIBmH9uOHTvq6gPb1u66664W96PNzMzEz372M6xbty7KuYqe1atXo3///kH74Xu9XpSVlWkODktISIDJZEJycrJqebhyT5gwAe+++66u/EUtwB0zZgy6du0Kp9MZ8N3bb7+NGTNmhNz+q6++QnFxMWbMmIGNGzfi7Nmzqu8bGxtRV1eH4uJieDweVFVVaa735Zdfori4GFu2bIHP50N5eTmmTJmCHTt2wOfzoa6uDp988gk2bdokb1NXV4fPP/8cxcXF8r6UafhramqS81pcXIympibd9eTv3XffxZkzZ9CzZ8+gf7kCgNlsRufOnQOWf/XVV1i5ciXsdjuqqqoC8llXV4eNGzeisrISPp8Pn3zyCYqLiwNaP30+H2bNmoUTJ07gu+++Q11dHY4fPw7g/Gjruro6bNmyBR9//LFcfikN/2OjRbnvcPlU7tP/WIXKZ7Djq9x2y5YtmDNnTsC5o7WtdC598sknmmUK5pNPPoHdbsfKlSsDzo2mpiacOHECAOT8+5/D/usXFxfj2LFjEeWB/mPXrl2YMmUKSkpKsGPHDkyZMqXFrSrxavbs2bBYLPB4PHjggQd0b9epU6eIB9FSfNm5cydGjhyp+Z3/swI4f2/3v/62b9+O5uZmjBo1Kuh+pPu8VkPQpEmTYLFYWpL9mJDimVD3dj0yMzOxdevWKOVKH+k56f/c27JlCxoaGlTLduzYgaysrKBpffPNNwDOv6XWeoY5HA7N7UKVe8SIEWhsbNT1timqP/RgtVpx4sSJgIz97W9/Q2ZmZtDttm7divT0dJw8eRLz589HVVUVfv7zn6sK8Oqrr2LYsGH49a9/jblz52LFihWYNWuW6qT+5S9/iTvuuAPA+QsmOTkZa9aswenTp/HKK6+gvr4eU6ZMwaRJk2C32+XtpkyZAovFgl//+td45plnsGTJEgBAQUEBbrrpJlWQe/ToUVx33XXYu3cv5s+fj3//+9/o2bOnZmCvR3l5OQDguuuuC7vu3//+d9XnJ554AnfffTcGDx6Mu+++G08//TQmTZok53fbtm0YNmwYHnroIbz66qu47bbb4PF4cPToUaSnp6vyvGDBAvzjH/8AAKxfvx5PP/00XnjhBQDAF198gfHjx+Oee+7BM888g9zcXLz11lsYOHAgjh49irfffls+Nrt37w7I9xdffIERI0bIwe/dd9+NW265RTOf0l9m0j4nTJigOlah8hns+ALnf8Hq+uuvR3V1NWw2G/7973/juuuuw44dO+RtJ0+eLO9v6tSp8k04Ly8vZMuCpKGhAUOHDsXatWsxffp0mM1mDBgwAH/84x/ldbZt24aXXnpJlf8vvvhCM72KigrcfvvtqK2txfXXXy/fLCgyQ4YMQUlJCY4cOYL6+nqUlJTgrrvuau9sXXBefvllXHHFFdi8eXOL72f04+J2u3HmzBlkZGQEfFdRUYE777wT3377LQYOHCjfv6ZPn46HHnoIpaWl8rrl5eUwmUwhW4GlZ/3KlStx5ZVXIjs7G0uXLsXZs2eRkZERsoGoLTmdTjz22GP46KOPkJaW1qq0evTo0aa/vujz+WCxWFBfX4+7775bflaVlpbinnvuwWOPPaZav6qqCunp6UHTM5vN6Nq1K77//nv07dsXKSkpmDFjhhz3BPvDKFS5e/fuDQDYv39/+ALp6qkbhtS5+8iRI8JgMIhp06bJ3+3atUse/S11zPbvQCyNSFy8eLG8bOjQoQGdxqurq4XBYBCjR48WQgiRnZ0tHnroISGEEO+9954wGAxi586d8vpms1mMGjVKnDlzRpw5c0ZePmnSpIC0pUFeypHqJSUlwmAwiC1btqjKYzAYxL333isvmzZtmkhMTAzoxK5nkFlubm6LZhp4/vnnRWJiojxrgRD/6WyvHJV47tw5YTAYRLdu3VT5M5vNAZ3fpQFawUYpSoNR6uvrRWFhobj++uvlzt779u3T3DY9PV10795dte+TJ0+Kbt26qepQyqd/faWnpwccq3D59D++586dEykpKcJms6nWKyoqEomJiarRn5MmTRIGg0G899578jLp3Ag3Qnf48OEBAy2l0bLKc0g6j8ONBh01apSor6+Xy7tr166Q67/66quiR48eEf07ceJEyDTpx0U6X7t166a6txBpke5NWoN+pPuX9Hyvrq4WQgixe/fugPtfbm5uyEHqkhkzZsgDrqV/qampYQcd5ebmyvsPRe/g5PHjx4uUlJSA5efOnRNDhgwR586dk+OdU6dOaaaRlpYmxo8fH3I/Uv22leeff14UFRWJkydPisTERPl5fObMGZGenq6KU6TnmDLm0rJv3z7Rq1cv1TEzGAyisLAw6Dbhyp2enq5rAF5U58FNTU3F0KFD8Ze//AVerxdGoxGvvPIKFi9eHHK7Bx98ELfeeitSUlLkZSkpKXC5XJrrDxs2DADk1jfg/ByxAFR/xXXo0AGVlZUB84tq9QWWlt13330By5SvmTMzM3Hw4EFceeWV8rJrr70Wzc3NOHToEMxmc8iy+mvpZNbLli1Dv379VP17EhISkJ6ejvXr1+P3v/89jEaj/Bexfx+pDh064Pvvv494vyaTCUlJSXjqqafw1FNPyctD9a++/PLLVfs2Go0YMmQINm/eLJ8n0ey765+Xl19+Gd9//z3GjBmjWj5s2DA0NzfD4XDIrcAdO3ZE586dcfvttwek5/V6A/oLSbZu3YqqqioUFBSolkuvbxwOR8D+Qzl16hRSU1ORlJSEkpISdO3aNeRbEOB8y8j06dN170OvC6VlhP4j3MCTiooKTJgwAbNmzVJdp+FkZWXBZrPB4XBg3Lhx8n2VKBT/e8SpU6fk51NpaSm6du0qPxsHDx6MoUOHBrT8XXHFFWH3s2rVKqxatQqff/451q5di+LiYvzzn//EG2+8gdmzZ0evQBqkH3UoLCzEnj17NN9yVFVVYeLEiUhISIDT6URWVhYuu+wyzfTeeecdWCwWzJw5E/PmzVPFP/6k52QwjY2NurtDXHHFFUG7FR06dAgvvvgi3nrrLTQ3N2PcuHEAzndFmjlzJurr6wO2Cfd8GDBgAGpra9HU1IQ///nP+OMf/4j9+/fjxRdfDHtvClVuPV1Do/5DD5MnT0Z5eTlKS0uRl5cHn88XNChQOnXqFMaNG4fDhw+jZ8+eOHLkSET7HTp0KBwOB/bv3y9fSM3NzRg6dGhE6ejJqxAC06dPR3l5Oa655hqcOnUqon0oDR06FKtXr5b7F4Vy22234a9//Stqampw5syZkMHx9u3bVTMv/Pd//3eL8xgLUtDodrtD9uGJBqlrR7Bj++mnn6o+X3XVVRHv4/PPPwegPQACOD/BdyQuv/xyvPbaa/B6vSgvL5cn5G8PUjBVVlYW0bFyu91ITk6OOEDesWMHBg8ejMsuuyzifbZ230Dk5WzpNqE4nU5d3WKC2bx5M/7v//4Pf/vb3yIKcAFg/vz5+OCDD3DkyBHU1NTIrwRbY+7cuTh27BiGDRuGO+64A/PmzcOZM2fw7LPPRiX9i8mWLVuQnZ3d7j/scvjwYTz++OP45z//iSVLlmD48OEB65w9exazZ8+G2+3GJZdcggULFmDjxo145ZVXQqZ9+eWX48UXXwx6/2pqaorouFdVVaF///7y50GDBmHQoEHIzs5GXl5eq8bB6HXo0CHY7Xbs3bsXTz/9tOZAZilfu3fvxokTJ+QB5Fr69esHm82GFStWwOPx4A9/+EPQOjlx4kTIe9nvf/973eM0Bg0aFHTQunRcpT9KlI0qHo8HI0aM0LUPADh27Bg6duwoN8IZDAZMnToVU6dOxbBhw3DgwIGwaYQqt39/YC1RD3Dz8vLw29/+Fq+99hqA8yPewnnppZewYMECzJs3Dx988AGA//Tn1dK3b9+AZWPGjEHfvn1RUFCA7777Dn/961/R3NyMN998sxWlCbR161bcd999yMnJwf79+5GQkAC73R60s3Q4kyZNwuOPP46qqqqwf6X961//AnD+5gEgZAtsS4I0fx9//DHS09NVeWptnyJ/wf66jYRWPpWkwXnBWr2i8Str0j6C3Wh/9rOftSjdN954A83NzSGnYZG05KdXQ/1kpL+//e1vAUGcz+fD8uXL8ec//xkAMGvWLHz00Ud47bXX5D5S0nG59tprcd9996GwsDDoPpxOJw4cOCA/PLT2uXjx4qBT/lx22WV45ZVXAvYdiUjLGWybSEh/2Et69eoFu92ORYsWycs+/PBD5Obm4oMPPgjbmv/kk0+iT58+cgtMJBISEnDddddhzpw5UQs+Fy5ciAkTJuDEiRNITk7GM888g/T0dFX5LgYbN26MqP+2//putxv33HNPwBuwtubz+XDLLbfg73//O+6++2643e6AANfn8+Hmm2/GqlWrMGDAAADA2LFjI3oGrFu3Ds3NzZg4caK87OjRo+jXr5/uNLxeL+bOnYstW7YEfGcymQAEb1iQXHqpvlAn1FgYs9mMjRs34tixYxgyZAj27t0b9FfbXnvtNXTu3Dnk1GkPPPAAdu7cic8//zxsA1S461AaNxQN0swH0jRekn379uG5557Tnc7SpUvxi1/8QnMWiZSUFM3WYH+hyt2jR4+w20d1kBlw/uZosVhw4MABrF69OmBeVC2FhYXo27cv5s6dq/l9uBkYgPM3jpSUFFRWVuKOO+7ASy+9hAMHDkT9p+6ee+45/OQnP8GKFSs0AwM9eVVKSEiQR4WGmibM6XTKD/3k5GR07dpVc9DR999/j86dO2Pw4MER5UPLypUrYzawScpnuBtdc3Nz2LTC5VNqxfef4UEKeLOzs8PuIxxpLr9g+9BqHdFjw4YN8jQsv/rVr0K+2fjmm2+wY8eOiP6dOXOmRfmS5OTkoF+/figvL0d5eTk+//xzfPvtt5rrfv/997jkkkuCpuX1evHCCy+EDXqmT5+OhIQEVFdX47nnnpP/3XPPPQGt8dESSTn18ng8WLp0KW644YaAn58cMGAAjh07phqw29jYiObmZl1/kCQkJOCuu+5qUSuh3W5H7969W9WC7K9Tp06qnwL++c9/HrW021KkUzb5r282m7Ft27aYv04P59ChQzAYDEhKSsKHH36IX/3qVwHrLF++HEOGDJGDW+A/3QskUmBZU1OjuR/pGlH+8bdy5cqArlTdunULem9zuVw4ffq05nefffYZOnfujNzcXM3vJTfccAM+++yzkOs0NDToaiD47//+b+Tk5GDz5s2a3/t8PmzevFnuFjh+/HjN9TZv3oy8vLyQwW1TU1PM5pIPRnqWKo/z7t27A6YDlN6IBmts+OijjzTfbvt8PnzxxReq7qD+wpX71KlTuqadbXUL7rFjx3Dq1CmcPXtWvpnOmDED7777LgYOHKi7dUj5oJWm9wLOP/SUv30OQHN03aWXXopt27bhzTfflFs4L7vsMowcOVJXC90PP/wg7ztcns+dO6f6rOwL3JIfSXj44Yexd+9erF69Gt26dQsI9A8fPow33nhD9TvPzz33HB588EHVq9GGhgbs2bMH8+fPl8sgzVQglS8U6WYltUKePn064LV+pF1HgPMzFDQ0NMh/bFRUVKC8vBwFBQWquu7cubM8Q4K0Xl1dXUDfJD35VHrwwQexatUqvP3226q/qDds2IArrrgCjz/+uLzshx9+0BVU+8vMzMT48eNRWlqKhQsXyuVat24dOnToENA3V48jR47gwIEDWLp0KRoaGlBXVxeyhaFnz55tOlfu+++/j+bmZlV/5aFDhwbt39W5c+eQN6WioiLceeedYffbrVs3VFVVITs7O6Dfvt75ESMRaTn1uvrqqzFlyhScPn1aM0Cw2WyYOXOm3Hdb2l8s5xN3Op2oqalp8SwKUj9FILK3A/6OHz8ut743NjYG3AOktxWdOnWS7+9NTU04c+YMjEYjTp8+jS5dusj5SUlJkb+XunZJwYzy+eC/rLGxER07doTBYEBFRQW2bdsWkFflmxNlPoOtf8011+Ds2bOquqmrqwvY/uzZs/B6vejWrZtmXpuamvD999/LfVeDnY9aaQPhf4Rn3759AW8J+/fvj1tuuUX+LLWgejwezdY26VyVnqsVFRWor68PeANx7bXXBv3joby8HFVVVaioqFAF28eOHcMzzzyD5cuXh31T88gjj+CWW25BRkaGZuNPQ0MDJkyYgJUrV4ZMRxLq2t+6dSvOnDmDqVOnoqKiImQAG+5a9ng8EbV2R4PU2q2MiQoKCgLuCUajEZ07d9acGtTr9cLj8eCPf/xjwNiThQsX4qc//Snmz58fNA+hyu3z+dDY2Cj/UFJIYYehhZCcnKwaFZedna0a5SaN+t60aZMwmUyqdXv06CE2bdokhDg/A0JSUpIYNmyYyMvLE6NHjxbbt28XSUlJwmQyiY0bN4r8/HyRlJSkub0Q50cvZmVlBYzUU854cPDgQVU+kpOTA5YlJSWJZcuWiVtvvVUerZmYmChuvfVWIcT5EYGpqamif//+qrympqaK5ORkUVhYKJYtWya6du2qyqseJSUlomvXrqJXr17iN7/5jVizZo3IyckR48aN0xzR/Ne//lX06tVL5OTkiLy8PJGcnKz63etly5ap6sxkMolNmzapjltycrKqHu+9916RkpIicnJy5FGKWtvk5+fL2yiPTWJiouq79PR08e6774pbb71V5OXliZycHJGcnKyarULy4osviqSkJJGXlyfy8vLEQw89JM9qkJSUFDafwY6vEOdHgd5///3ycRs2bJi47bbb5Ho9ePCgqoxdu3YVmzZtEj169FCdG8qy+ZNGzvbq1Uvk5eWJsWPHiv79+4tDhw5p1pV0bkh51DJo0CCRnZ0thg0b1u6j2v1HrRYUFIi0tDTVDBnl5eXyaOW1a9eqRi6np6eHnDli0KBBASOdtUbKnjx5UjUK+8iRI+JPf/qTEEKI3/3ud5r7jkSk5QyWz0j2F2wWle7du8uzd0ijlmNl37594s4779T1k6aSM2fOCK/XK4T4z2wlGzZsEJs3bxa9evVS1VFubq6qnpQj65UeeeQRkZiYKDIzM8WSJUvEwoULRa9evcS+ffuEEOefF1lZWWLv3r1i/PjxYvHixaK8vFz0799fdO/eXTz66KPCYDAIh8Mhbr31VmEwGMT8+fPFihUrxAMPPCDuvfdeMX/+fLFmzRoxfvx4OU8vvPCCSElJkY/Fk08+KZKSkkRBQYEoLy8XEyZMEAaDQb4/CXH+3EtMTBRVVVXi5ZdfFv379xcnT54Muv4LL7ygGp1eX18vRo4cKdatWyfWrVsnX+fl5eUiMzNTmM1mkZ+fL9asWSPGjBkjzzS0du1aYbPZxNdffy1sNpvm+Rcs7bq6OlXeNmzYoHlsn3/+efleOHbsWPHZZ59prpeenh70Z57r6+tF//79RWZmpsjLyxPZ2dma55d0bmvNVDNo0CDx8ssvi169eomxY8eKFStWiBkzZgQ878KRngEjR44UK1asEGvWrBFr1qwRU6ZMEZmZmWL37t260wr1U70nT54UKSkpYsKECeK2224Lej3pmWVpzJgx7fJzvTNmzBApKSkiLy9PZGZmyteev9zcXNWsTZK1a9eK8ePHixkzZsjxzIoVK8TAgQNVz91gQpV7586dmrNWaYnKNGHR8vXXX4tjx47Jn8+dO6f7ZnvvvfeK3NzcgN+ofvPNNwOmaYqGY8eOia+//lq1TDkVWWscOHBAvviU9RFJXlqjoaFBNDQ0RC09Zbpff/11yGN67tw58fXXX8sPzYaGhqB10JJ8njlzRpV+LEhliFYdhquztuJ/w9myZYsc+EsPUiX/IHPMmDFi48aNmmlL08SF26cQQmzcuFF+GHq9XvHAAw8E3ICjGeCGK2ewfEayv2AB7qRJk+Q6k6buiYV9+/aJrKysiM8zm80m31vPnTsnRo4cKde7zWZTPfz0BrhCnA+alMGLzWYT6enp4ty5c6Jbt27y1ER1dXXyw27t2rXy/9966y35Iaqc9k8KpKSpAdeuXauaGmrevHmqY6HMs9YfGEeOHBEjR46Up6kaM2aMHOwF+4NEmebw4cNFUVGR/F1RUZE8fWOovObm5oo333xTrvdly5YF7EdP2uG8/PLLIjMzU27s0bp+58yZE3aKr2PHjoV9lqWlpanyK9mzZ48Q4nw5P/74Y7FmzRrxwQcftPh56/V6xQcffBDRM9ZfqABXymu4Z3K4AFe63sNNDxkrXq837LPn9ddfF927dw9YXlFRIW/X0NAg1/U//vGPsPsNV+45c+aEnV5NEvVBZq3h/wolktdbW7du1fyN6mnTpuH555/H559/HtE0TeFozWAQrVGxffr0QZ8+fVqVl9aIxqCrlqabkJCgOg9CbdOSfHbq1CnkdCzR4F+G1op1fltqzJgxWL16NV544QUcOHAAv/zlL1FbWxvQn1RyxRVXoFevXvLn8vJyZGRkoFOnTjh06JD8ujOcTz75BFdccYU8Er+8vBxvvPFGVMqkJdJyRlPHjh3l19NGozEm50JDQwOmTZuGbdu2RXTP3bNnD0pLS+Up9hISErBp0yYUFRXJUykNHDiwxflSvr6VjkFxcTHOnDmDxx9/HP/1XzcsR3AAACAASURBVP8FAEhMTJS7TqWkpCAhISGgf5//uRXsp0Uj7f6RmpqKNWvWYPny5Th48CDcbrfu8Q9erxdVVVWq190GgwFVVVWqHxfSymtOTo48vdTAgQOxevXqFqUdTGNjI7p06YJZs2Zh1qxZ8Pl8GDx4MMrLy1Wz8wDnBzT27t0bR48eDVqvep5Rs2fPxurVq/Hwww+rlt94440Azp9fI0aMiGgkvxaDwYCxY8e2Ko1wovEMWLduHQYPHhx2QGmsGAyGsN2w8vLysHTpUrz//vuqLlzKH/7o0qUL7r//ft37DVVun8+H9957Tx7cG07UB5m1l0ceeQSLFi1S9YH1+Xyw2+1oampCfn5+O+aOKL40NTXB5/PhzjvvxEcffYT6+nqMGjUKu3btCrpN9+7dVaOZx44dG/GgTOD8tG4WiwUlJSXYuHGjroGsd955J4YPHx7036uvvhq1ctpstpD7evrpp3WXtXfv3qrBbNGexcTn82HChAlYvXq17gG50n117Nixql+SdLvduO666zBgwAC8/fbbuPfee6OaVwDy/ONvvvkmdu7ciZ07d+Lw4cNtPtXYrl278M0336C0tBRDhw7F3XffjXXr1slztAdbP1rGjBmDI0eO4OWXX8Z3330X0c8r6zFv3jzV54SEBKSlpWkGqklJSXj88ccjGmGv5eGHH8YPP/zQ5j9N2xrh5qMOJtwfGT6fDy+++GKr6zTWEhIS8Nxzz2Hp0qVRSS9cuVevXo309HTdM9ZcUC24rbFo0SKMGTMGU6dOxenTp/HDDz/gX//6F6xWK2pra9t9zkGieDJnzpyAoPD6668PORfj3LlzVS0CW7Zs0fyJz1C8Xi8OHz6MOXPmyMv0PASk6b0i1ZJytnTKQC01NTWqQT3Kn32OhilTpiA1NRXV1dWorq4Out6pU6dQXl6Ow4cP4/Dhw/JATOUUWOvXr0dKSgpuvfVWAMDXX38NAAHTnemlnHJv69at6N+/PyZNmoR58+bhs88+k+c7X7VqVUCrYrTU1dXJwbP0x5nP50NVVRUuv/xyOJ1ODB8+XH7jJq1vt9txzz33BKyvHAxrNBoxdOhQ1SAdj8eDrKyssC3pM2fOxIoVK3DXXXdh3LhxAfO9tyZtaRYA5YDrhoYGVFdXo6ioSHOb3/72t7Bara2ev/mDDz7A6NGjccMNN0R9BqRomjx5Ml5++WXk5eXh7bffjmjAaVNTE+677z75DbOWJ598EnfffbdqUN2FKicnB1988UWLr3OlUOVuaGjA888/j7KyMt3pxU2AC5wf2fzRRx+1dzaI4t6uXbtUryR9Ph8++OCDkPNOz507F3feeafcVUj5UO7Vq5fmaFx/0q8bStOyAaFHNLdWS8oZTT/88IPcFcftdmPJkiV46aWXovLrcuvXr8e+ffsAIKJfLJOm++rUqZOq29fkyZNRUlKCpUuX4uTJk/jpT3+K8vJyXH311Zg7dy527NiB6upqXHPNNfIfHLNnz8Ybb7yhOQvKO++8A6/Xi4aGBuzYsUOekeC9997DhAkT5JbtLl264OjRo1i+fDnq6uowZcoUea5l6XX37NmzkZ+fLwdod911F+699155m7vuugsbN27EnXfeiWnTpqG4uFj+8ZaSkhIkJibCZrOhT58+ePTRR/Gvf/0LDz/8MB544AHMnDkTK1euRFVVFfr164fNmzfjF7/4BXr37h2wvlQPX375JcaOHYvi4mLk5ubKswh98sknWLduHXbt2oXf/OY3mnmdMmUKAGDq1Km466678OGHH+LRRx8NqD+9aT/xxBMYMmSIvN327dvRp08fjBgxAjNnzsSpU6dQXFyMt99+O+R5V1JSgmnTpiE7OxtXX3110PVCSUpKwoYNGzB37tyYdjtqLbPZLAf8FosFvXr1QnFxcdjt7rrrLnz77bewWCxBA+M///nPuPbaa9t9KrlILFq0CE888QTKy8sj/nEtSbhyP/LIIygrK4vsDx9dPXWJ6EdPGhBRV1cnBg0aJDIzM+XRyJmZmfJAHon/QK+UlBTx1FNPBU0/PT095CwKeXl5ok+fPsJgMIicnByxYsWKoGlFY5CZ3nL651Ov8vJykZeXJ1JTU+XZQ/xHtHfv3l0ewLRt27Z2HXSiVzQGRUozbpw5cyboYM2GhoaoDexVUg4QamhoCCiL/6CkcAOK9Axi8nq9EQ18lcp97NixsHUdadrffvutvI+9e/eKvXv3XhCDXIkiFVctuEQUez/5yU/kH1T48ssv5Ra2cN2ApFfWwdxzzz3YvHmz/OrZX0lJScsy3EItLadeQ4YMUbWc+XO73ejdu7fcanbLLbfgu+++i8q+YymaA+E6deoUtL5jNRhWOUBIax/+/VDDDSjSM8Aq0rcQUp3EIm1p3tZOnTrpm2uU6AIVN4PMiKhtJCUlISEhAQkJCfKrzGgEffn5+diwYUMUchgdsSqnXq+99lq7/pxre3n00Udx/fXX4/3338eqVavaOztEdJFiCy4RXRCMRiPmzJkTlcEKF7uKigoYDAbdo4XjyUsvvdTeWSCiONBh4cKFC9s7E0R04fvZz36Grl276l7/8ssvx1VXXSXPV6qH1D3hqquuQkJCQsT7bM2+JS3ZZ0vzGcy+ffsC5gMlIiL9LhFCiPbOBBERERFRtLAPLhERERHFFQa4RERERBRXGOASERERUVxhgEtEREREcYUBLhERERHFFQa4RERERBRXGOASERERUVxhgEtEREREcYUBLhERERHFFQa4RERERBRXGOASERERUVxhgEtEREREcYUBLhERERHFFQa4RERERBRXGOASERERUVxhgEtEREREcYUBLhERERHFFQa4RERERBRXGOASERERUVxhgEtEREREcYUBLhERERHFFQa4RERERBRXGOASERERUVxhgEtEREREcYUBLhERERHFFQa4RERERBRXGOASERERUVxhgEtEREREcaVNA9yMjAxYrda23CURERER/ciwBZeIiIiI4goDXCIiIiKKK60KcI1GI5xOp/zZbrfDaDSq1snIyEBGRoZqmdVqhdFohNFoDPhOmY70z263B+zXbrcjIyNDlQe3263aTpm29B27SBARERHFt1YFuCaTCaWlpfLnmpoaAFAFvR6PB/PmzZM/u1wu5OTkwOv1wuv1wuPxqIJOq9UKh8Mhf+/1euFwOAKCXIfDgXnz5sHr9cJqtcLpdCIrKwtFRUXydmlpaZoBNBERERHFr1YFuBMnToTL5ZI/u1wuVdArBbrKANZisag+22w2OQ232w2Xy4WysjLVfmw2GxwOh2qZfzqFhYWw2WyqZQsWLIDH44HT6YTZbIbX61UF30REREQUfy5tzcaTJ0+Gw+GA2+3G/v37YTKZMG/ePBQWFgIASktLYbFYdKe3f/9+AEBWVlbYdXv37q367PF44HA4AgJhIiIiIvpxaVWAazabYTKZsH79etTU1GDixImwWq3Iz8+XW2OLiooiTtfr9bYoP0VFRexjS0RERPQj1+pZFCZOnIhNmzahtrYWkydPBnC++8DixYsBIKKAs1+/fgDQom4E/v2BiYiIiOjHqdUB7uTJk+HxeODxeGA2mwGc7z7gcrki6p4AnG8RtlgscguwRJotIZR58+bB5XKpBqNJszE4nU7OokBERET0I9HqAFcKapXBrNSS699PVg+n0wmbzYasrCx5uq+0tLSw3RasVivKysrgcDjk7aTZGBjUEhEREf14XCKEEO2dCSIiIiKiaOEvmRERERFRXGGAS0RERERxhQEuEREREcUVBrhEREREFFcY4BIRERFRXGGAS0RERERxhQEuEREREcUVBrhEREREFFcY4BIRERFRXGGAS0RERERxhQEuEREREcUVBrhEREREFFcY4BIRERFRXGGAS0RERERxhQEuEREREcUVBrhEREREFFcY4BIRERFRXGGAS0RERERxhQEuEREREcUVBrhEREREFFcY4BIRERFRXGGAS0RERERxhQEuEREREcUVBrhEREREFFcY4BIRERFRXGGAS0RERERxhQEuEREREcUVBrhEREREFFcY4BIRERFRXGGAS0RERERxhQEuEREREcUVBrhEREREFFcY4BIRERFRXGnTAPfgwYMoLi7G559/Li+rrKxsyywQERERUZy7RAghYr2Tw4cPw2Kx4IYbbsAdd9yBbdu24YsvvsDNN9+M06dP49VXX411Foh+FK688ko0NzeHXc9ms2HRokVtkCOi+LNjxw7s2bMHc+fObe+sEFEQMW/BdbvdGDJkCF5//XWsX78e999/P4qLizFr1iysXr0ao0ePjnUWiH40vvvuOxQVFQEApk2bBq/Xq/pXXl6Ozp07w2AwtHNOiS5ev/jFL+BwONo7G0QUQswD3KeeegoTJkzAzTffrFo+bdo0AMBNN92kuZ3RaITdbo919i4YTqcTRqMRbrc75vsyGo1wOp2tTkfKc7B8a+0nIyMDVqu11ftuD/7npNbnC6G85eXlAIARI0YEfNenTx+MHz8e11xzjea2Vqs1IL92ux1Go7HV+WrpeWe1WpGRkdHq/V8ItOpXKVb3gWjdT9viWLTlvbClnE4nPv744/bOBhGFcGm4FaxWK1wuFwCgqKgoooe11+tFWVkZZs6cGfBdQkICTCYTkpOTg25LF7b8/Pwf9atuPedoe/Qx//TTTwEAo0aNkpc1NTWpWm379evX5vmi8MIFwHRh4JtHogtfyBZcp9MpB7cAUFhYGFHi33zzDQDgrbfewrFjxwK+5yuei5fUutK3b992zgkpeb1eHD58GD179lS1uubk5MDn8wEAzGYzevXq1V5ZJLpoNTU1obi4WPN5RkQXloi6KHg8nogSN5vN6Nq1K77//nv07dsXKSkpmDFjhvwKdeTIkUG39X+lpnwdbjQaw7ZyKNf1f70qvXL1T1MK2pTfK0nra71mDZU/6TutPPqntX///pDldLvdqu+1XhdarVbVOtI+lPnIz88P+co41H7sdjuysrJU6ShfJ+rZjzKPWmWQjoH0L9zrVf/1tc6PUOeEMt+RnGN2uz1kebW6KAQ7Pv7pZmRk6M6LZPv27QDUXX927NiBH374AQkJCQDODzCT/u+/X5fLBZfLpbnPYNeLJNgxa815F6zc4eowVH4iSUNZN3qOSag0w9Wvsq607kWh6l5KP9w6yn1oba/Mr95jEcm1Kl0P/vUUrjtCqGsz2D0kIyNDtTySZ4JWehUVFbj99ttRW1uL66+/Xm7AIaILlAgjNzdXGAwGYTAYxNq1a8OtHmDfvn2iV69echrSv8LCwpDbGQwGUVBQIIQQorq6OmD/BoNB5Obmht1WKkN6err8uaCgIGB7qZyS9PT0gPS1lunJ39q1a1VpK9eRtpHW8V/PP5/+ZUtPT1eVzf9zsLyFOpZSXpTr+NePVrqhyqfMX7hj6b8vrXIrBVtfSlPKq3J76Ryorq5WlVn6rLVPPZ+1yqssW7Dj45+OMi9a6wRjs9mEwWAQycnJwmQyyWnNmzcv7LZCnK9L/3Ncz/UireNfrkjOu1DHSc857n/NhzqH/POrdc77bxvumOjNV7D7ljIf0n701L2e81v5vZ77kd5jEem1Kl3/kVyL4a5Nre+Vy0KVJVTZ/I0aNUrU19fLae/atSvoukTU/sK24DqdTnkEdkv6hg0YMAC1tbX46quv4HA45L5/L774ou409u/fD0Ddb7CsrCxofsvKylT9Qnv37q3Z+qxsrViwYIFq2cSJE1XdM9xuNzweD3JyclqVv3CkEfDKzy6XC263W7NbQGVlJdLS0uB2u+F0OuHxeFT9Ps1mMywWS0TdSwoLC2GxWAJaoQFEZaCKf9o2m02ua7fbDZfLFVB/NptNs0uLtL5WvUnHavHixTCZTKpzYtGiRTCZTFi8eLG8rKysDGazWf5sMplQU1PTipKqScfnrbfekpeZzWbNstlsNjkv0jHctGlT2H189NFHAIDq6mocPXoU9fX1uPHGGzUHnLUk/xL/66Vv376qYybl/cCBA7rTD3WclHkIV4d6zqGamhpVularFTabLWT+Qh2TSI5tS4Sq+2D1VlRUJN+bIqXnWER6rUr0XIv+Ql2b0r1k/fr18velpaUwmUwwm81YvHgxLBZLwD6BwPuZ8vgpnTp1CqmpqUhKSkJJSQm6du2KzMzMoPklovYXdpBZSx07dgwdO3ZEUlISAMBgMGDq1KmYOnUqhg0bFtGDz2q1Ij8/X34tbjKZUFlZqflK0f/VVUtNnjwZDocDTqcTVqsV69evh8lkCvpaUm/+wvEf/CN93r9/P6xWK0wmE/Lz85Gfnw/gfJ9LaT/SDV6r3MoHUzgejwcTJ07UTCOaAZ8W6YEs1aXe9f3rTXmcamtrkZaWFrBtWloaamtrVes7nU65bqV1okU655UPauA/f7C43e6A7yLh9Xrh8XhgMpnkcyAhIQH//ve/VQPOYkGqP7vd3uKATs9x0lOHes6hnJwcubsE0Pp5gWN9bEMJVm+tGaym51hEeq0q0wiVrj8916b0x4Z0DJV/9NbW1sLj8eh6HgQ7Rpdffjlee+01eaq9Bx98MGxaRNS+YjZN2NKlS4PesFJSUtClS5eI0pNakW02m3yz0uonpew3VlZWJm8TKamFprS0FACwadMmzaAv0vy1VmVlJbxer3zz9u9PZjKZAuY+9Xq9URvNH+yYRptWGWIxs4bUsi/1wSssLJT3FckfBdHQ0tY2idQKnp2drVrudDo1+9xGk9SnsqamJmbHSg9lHYY6h6xWq+o4OxwOXX29o5GveBPra1XPtblgwQJ4PB75TRaAgLdEWnmM9I+aN954A83NzZozAxHRhSVmAe5HH32EU6dOBSz3+Xz44osvcN999+lOS3nTWrRokRzgaXU7kFpavV5vq1tMcnJy5O4BHo8n6M1Qb/6UAymCDarwfxD6t1BKD2DpAS29HnS73ejbt698k2+NYC21wVp2o0kqp97Wb2ULt5KyDoK1DtXW1sJisQA4/weMzWaL6bReytY8Jan1r7XTQwWb/zbSPyZbQmoxa838yqGOk0RPHeo5h5SBrPRHo8ViafEbilgf21CC1Vu4+0Co+5GeYxHptaqVhnJZsLcleq5Ns9kMk8mE9evXo7S0VNWokZaWpqt7jx4bNmxA//79kZqail/96lc4cuRIVNIlouiLSYArvSr94x//GPDdwoUL8dOf/hTz58/XnV5eXh7y8/NVN1Kpj5X/jbmmpiYgsGzpK1PpoZSVlSUHQi3Jn/QgUPYRy8vL00xL+QpO+myxWGA2m2G1WuFwOFQPZ2WaUhcG/1eGWq3JobqIzJs3Dy6XS1UeqS4ibfGIpCsK8J+W8/z8fNWxlUavh1pfKSsrS15fat1R1pvdbofH45H7M3o8HlVwI/WpjFSo8krHR3ns3W43HA5Hi94y+JP637a2O0KkrfTScVKWPVhLaKj6CXWcJHrqMNw5JK3vfz4p+9xHKpJjG+23IMHqLSsrS/M46Lkf6TkWkV6rknDXotb6eq7NiRMnwuFwwOVyYfLkyQFl0ZrZJpIW+yNHjuDAgQPIy8tDQ0MD6urqcN1118lvDTl/MdEFJhYj19auXSvGjx8vZsyYIXr16iV+85vfiBUrVoiBAweK2267TdTX14dNw3/Uq3KWgXCjXZUzP0gjaZXb+I+gFSL4rADSuuFmkAiXP//v/fenHPWrXM9/xLX/91qjof3L7z+iWSpTqNHO/vvxL4+eWRS09qM1E4XW8VBuG2rGjEjWD1dv/uWVjomU93CzKOgtr//x8a9DrePiPxOIUo8ePURSUpKcXlJSkujRo4f4+OOPQ1WZJuVxj+R60Tpv/a+dlpx3BQUFmmUPV4f++9M6J8JdJ0p6j0m4fGnVr1KwWRS00tA6b/zvMcHyH+5+5J/XUMcikmtVuh78twk2A4JW2bSuTeV6wa6TUPWjVc9aBg0aJLKzs8WwYcPk55hUT+HuUUTUti4RQohoB82VlZXo27cvEhIS0NjYiA8++ADA+bk5u3fvHu3dxZTdbsemTZva5RepiIjiSUZGBtLS0qLyU+FajEZjxL+4Gam6ujpcffXVMe/XTkStE5NZFJSvw7t06YL7778/FrtpE9F6fUxERLGjHJ8QSykpKTFNn4iiI2bThF3srFYrXC5XwPyJRER04XC73fK4g5bOP05E8ScmXRSIiIiIiNpLzKYJIyIiIiJqDwxwiYiIiCiuMMAlIiIiorjCAJeIiIiI4goDXCIiIiKKKwxwiYiIiCiuMMAlIiIiorjCAJeIiIiI4goDXCIiIiKKKxdcgHv8+PF23Z6IiIiILm4XVID7y1/+Ep988knIdXw+Hz7//HMUFxfjyy+/lJdXVlYCAF555RU888wzMc0nEbVeuGuZiIiopS6YAFcKSq1Wa9B1duzYgZ///Od4/fXXAQCPPvoobrnlFlitVmzfvh0AsGjRInz66adwOp2xzzQRtYiea5mIiKilLhFCiPbOxNGjR5GZmYlDhw7BaDRqrlNaWopHHnkEH3/8MXr27Ckvf+yxx7B69WqUlZXBbDbL6d100004cOBA0PSIqH1Eci0TERG1xAXRgvu73/0O48ePDxmMPv3007DZbKoHIgBMnToVnTt3Vj0QU1NTMXDgQDz77LMh95uRkRGyxTgUu92OjIwM1TKn0wmj0Qi3292iNLW0JE273R5xYO92u6Oe91jLyMiA0WhUHUOtZZGyWq0wGo0BxxcIXk9GoxF2u73F+4yFWJyPwRiNRt1vTSK5lomIiFoibIArPewjeYBFwufz4S9/+UvIgKSsrAwnTpzANddcE/Bdx44dMXz48IDlEyZMwLvvvhty35WVlRd8Vwar1Qqv1xvRQ3/RokXwer0xzFX7s9vt8Hg88Hq98jHUWhYpp9MJl8uFsrIy9gWNgZZcy0RERJEKGeBKD3tJYWGh7oSbmppQXFyMr776Sl529uxZbNy4UbXe9u3b0dzcjFGjRgVN69tvvwUAOBwOnD17VvVdcnIy5s2bF7DNiBEj0NjYiIqKCt15potHTU0NTCZT2GWROnDgAACwFTFGWnItExERRSqiLgoej0fXehUVFbjzzjvx7bffYuDAgfjmm28AANOnT8dDDz2E0tJSed3y8nKYTCYkJCQETc9isaBDhw44fPgwunXrhj59+mDOnDk4ePBg0FfJvXv3BgDs378/aLr+XRSkV7rSv2CtyhkZGXA4HPB4PJr7379/vyodrdZE5fehuhNovWaWXpNL//z3799FQfrsXz4pTbvdjqysLABAVlZW0NfaUn0pW/W11g1Vj8GOV0ZGhmq5/z6UdWg0GuFyueT6l9b1X6ZFqgvpn7JbgXRcg+VTTz1JXSSC5SFUufyFqkfpO39aafqfj/75Cnc+SWXXqjdlPvLz88OWqSXXMhERUcREGLm5ucJgMAiDwSDWrl0bbnUhhBCjRo0S9fX14vXXXxcGg0FUV1cLIYTYvXt3QDq5ublizJgxYdN87733RNeuXeW8GAwGkZiYKDZu3Bh0m/T0dFFQUBDy+9zcXCGEENXV1QF5MxgM8vf+CgoKRHp6umrZ2rVrhcFgUC0vKChQ1YG0H2W+pHW0SGlK20uf/etQub1/etJnZVn8t5HyJe1HS3p6etC8++dPmY5yG63v/Zelp6er6lCrznJzcwPqX2uZ//f+9exfL6GOhTIv/vUknZOhjnOwcmldV+HOR6nO/Cm3kdYJV+Zw+QxWb8ptIrk/tORaJiIiikTYFlyn0wmv1wuv16tr4M6pU6fQr18/JCUlobS0FF27dpVf9w4ePBhDhw5Fenq6apsrrrgibLq33347jh8/jn/84x94+umn8fOf/xzNzc144YUXQm7X1NQUNm3gPy29/fr1k5eVlZXp2tbfW2+9Jf9/0aJFAID169cDABYvXgyLxSIvV66jZ5BSYWEhLBZLQGuenu2VLWsLFiwIWKaHyWQKyLvJZMLixYvlZf6j4E0mE2pqagD8Zxo4qT6A86PqTSYTzGYznE4nPB6Pqg7NZjNsNpvcutoSbrcbLpcLRUVFquVFRUVwuVxRGYhls9nkcpvNZlgsFmzatAkA5HIp+/VK62h1/Ynm+RiqzFK5+/btK39fWVmJtLQ0+XupT7J/WVt6PFp6LRMREekV9VkULr/8crz44ovwer0oLy/HHXfcofq+qalJ7j6gx8GDB+Hz+eTPXbp0wZNPPom9e/eic+fO+P7770Nu39DQoGs/UuAlvXrOyMiQA65oqq2thcvl0t1FwZ/H49GsP2UQGUtpaWmay2prawGcr0ep3qSy+XdtUQZ+AOByueS+l8H6wEoBWEsDUa2AUfk5VFeWaJDK5X/clX3claJ5PoYqs9lshslkkrsXSOei0+mE2WyW60XKh/SvJcFta69lIiIivWI2Tdi6devQ3NyMiRMnysuOHj0a8LANZ/bs2Thz5kzA8oSEBFx11VXo1q1byO179Oihe19SS7XNZgvavzYabDabvC/lP2XLaEtIQWZ7kvpqFhYWyuXyH/i1YMECeDweuN1uOWDTO61XrAJRKQCNJZPJpHncg83W0FbnY2VlJbxer9zSq/VHl1a+I52po7XXMhERkV4xC3Cl0dLSoBwAWLlyJaZPn65ar1u3bjhy5IhmGj6fD3v27MGpU6cCvmtoaEBdXR2mTZsWNA+nTp1Cx44ddeVXGWxJ02wVFRXpHlinV1pamqr1MlLBWmo9Ho/qj4lY0Qqia2tr5ZbdTZs2wWazhZxiS2o1XL9+PUpLS2Gz2eTvgrXUSgFoS+e3DdZSK32ePHlyi9LVq2/fvnJQr4fe89F/8KGWYGWW6kTq2iJNSSd1R3C73fI6rX2T0dprmYiIKBIxC3ClwFJ6JVlRUYH6+npkZmaq1rv22mvlYNjfnj170NzcjJUrV6qW+3w+PPLIIxg9enTQgMfn86GxsRGDBg3SPa95GgAAExNJREFUld+8vDzk5+erHuRS39BggUNLgl+p9VJrRLyePrjz5s2Dy+VS5VNKq7UtwED4FlKPx6PKpzT3rNSn1+PxqAJwqe+pv4kTJ8LhcMDlcqmCS6vVCpPJhLy8PHmZ2+2Gw+FQBcKRkvq75ufnq5bn5+fDYrFEPC1YpC3JUrmUf/ABwWeVCHc+SoGnsi+zss6UQpXZarXC4XCojqkyTWW9Ka8DabYIpVCt4C25lrX2QUREpEusRq/V19eL/v37i8zMTJGXlyeys7PFuXPnAtaTRovX1dUFfFdQUCBsNpu47bbbxMCBA0VBQYFYsmSJ6NWrl7j//vs105Ps3LlTJCYmhlxHOYuCEOpR5/6zIWhRrqvcXmuEvf9sDsptQ81eoJWmVGfB8hlsFgUlrVH64WbMkOpLSi9Y3v3zJpVBqw6C1bEyL1r5acksCsq6kP755yncLAr+eZPypZVWsDyG2r9SuPPR/3v/Y6o8d5Tr+c8M4v+9Vvn9680/DeX3WmVqybUszdpBREQUqUuEECKWAfTx48cBIGT/ut69e2P27Nl4+OGHVcv37t2LG2+8EQDw5Zdf4tNPPwUAjBs3Dl26dAm53yeeeAIHDx7E+++/35rstzun04n8/PyAmQnaQ0ZGBtLS0qI28M5oNKKoqKhVP6tLF4fWXMtERESRujTWO9AzcGT27NlYvXp1QIArPRABoHv37ujevbuuffp8Prz33nt47bXXIsvsBShef1lL2e+T4l9Lr2UiIqKWiHmAq8fDDz+MV199FVu3bsWYMWNand7q1auRnp4e0N/xYiP1P2xN39MLjdvtlo9LS+d1JSIiIgol5l0U9GpoaMDo0aOxbds2JCUltSqdrKwslJWVtSodIiIiIro4xWwWhUglJSVhw4YNmDt3bqvSeeSRRxjcEhEREf2IXTAtuERERERE0XDBtOASEREREUUDA1wiIiIiiisMcImIiIgorjDAJSIiIqK4wgCXiIiIiOIKA1wiIiIiiisMcImIiIgorsQswPX5fGhqaopKWo2NjVFJh4iIiIjiX8wC3EOHDuEPf/hD2PWampqwZcsWbNy4UQ6IGxoa8O2338rrzJo1K1bZJGoXjY2N2LhxI7Zs2YKzZ88CAA4fPozTp0+3c86IiIgufu3aReGJJ57AgAEDUF1djS+//BIjRoyA3W7HDTfcAP7AGsUjn8+HSZMm4ZZbbsH//u//YteuXcjIyMCSJUtwyy234LLLLmvvLBIREV30Lm2vHd9333345z//iZqaGiQkJAAAHnvsMfTv3x+JiYlITk5ur6wRxcxNN92EwYMH491335WXPfLII+jduzdGjx7djjkjIiKKH+3Sgrt7925s3rwZK1eulINbAEhISEBOTg5uvPHGiNIzGo2w2+0tyovVaoXValUty8jICFgWa+2xT39utxtGoxFGoxFOpzPge626stvtMBqNbZVF3dqqPu12OzIyMnSt+8Ybb+Dbb7/F8uXLVcuTkpIwcuRIZGZmxiKLREREPzphW3CtVitcLhcAoKioKCpBwzvvvAMAuOaaawK+69ixY8QtWV6vt9V5am+VlZXtnQXk5eXBYrFoBrfUeuvXr8eVV16p+qNO0rFjR9x2223tkCsiIqL4E7IF1+l0ysEtABQWFkZlp8ePHwcALFy4MOC7SZMmwWKxRGU/FBmPx4PevXu3dzbi1vHjx1FXV4e33nor4LuZM2fCbDa3Q66IiIjiT0RdFDweT1R2KgWwK1euxJVXXons7GwsXboUZ8+eRUZGRsSvvP27KFitVvlVe7DX7dJ2LpcLLpcLRqMxoHVamY7Wa2jp9bz0L1Q3CeXrf630lK/U/dNV/nO73ar8K//pqSet9Z1Op/zZ4XBo1lm4upLS0MqnnvL7k84DrfQyMjIC6jpYVwH/c8E/X+HOlVD5zsjIgMPhgMfj0VWmW2+9FcD5PrdXXXUVxo0bhzVr1sDn82HkyJEhtyUiIqIIiDByc3OFwWAQBoNBrF27NtzqsurqalFQUBD0+xkzZojExEQ5bYPBIFJTU8XJkyc18xCKwWCQ91VQUCAMBoP83dq1a0PmPTc3NyD99PT0gG0MBoNqPaleguUjVB6lfaSnp6s+hyqncv/V1dUB6fmXWynU+tXV1bryL4R2XUnphKobrWOQm5urKr//fpTf+ec1PT09IJ8FBQUB9RmuzOHOFT359t9vKOfOnRPjxo1TnfMGg0EMGTJE1/ZERESkT9gWXKfTCa/XC6/XG9VBO6tWrcJ3332Hbdu2Yfr06UhISMA///lPvPHGG61Kt6amBiaTSf5stVphs9kiTsdisajKa7PZ5O4abrcbLpcLZWVlqm1sNhscDkdAWlKrYd++feVllZWVSEtLC2hR1JKRkQGTySS3Li5evBgWiwWLFi2S15H+r9WKvHjxYphMpoD1TSYTFi9eHHb/eihbPhcsWKBaVlhYCJvNpqrPBQsWwOPxaLau19bWIi0tTZVXm82G/fv3R5SncGUOd65Emu9wEhISsHnzZtTX1+Mvf/kLJkyYgA4dOuDgwYPYunVrxOkRERGRtjafJqyqqgr9+/eXPw8aNAiDBg1CdnY28vLyWv3rZzk5OcjPz5dfudtsNlWQEw1SoJWVlaVrfbPZDJPJhPz8fOTn5wM4PzBOT5BktVrh8XhUA+lqa2vl1+J6+AeMkrS0NNTW1upKozU8Hg8cDodm8K9l4sSJclcJ4PzgxpYcw3BlDneuRJrvYHw+H7788kv06dMHwPlAd8SIERgxYgSWLFmCwsLCqP3qHxEREbXxNGFerxdz587V/E5qSdOaWSESVqtVbnE2mUxyoNTSacRCkfbj/09LZWUlvF4vioqKACCgH6wWu90Ol8slb6Nks9k09x1pIBitftXhFBUVaeZX663AokWLVHUpBaHRnt1Bz7kSSb6D2bNnj+YxBKJ33hMREdF/tGmA63K5gv4U6WeffYbOnTsjNze3VftQBidSUGmxWFBTU9OqdJX69esHABEFXFK+pKBK6t4QrIuC0+mEw+EIeEUOnG+F3LRpk+59B2upra2tbZMZK0wmE0pLS3WvrzyGygD0wIED8nL/46l1fIOVWWrZDXeuRJrvYP72t78FPe/Ly8thMpl0vw0gIiKi8No0wC0vL0dVVRUqKipUy48dO4ZnnnkGy5cvb9WPBrjdbtWrbYlyqjMtkb6mN5vNsFgsyM/PDxjdr5V/q9UKh8OhCqjWr18fNH232438/PyAfrYSqR+oMvCVZjHQaqmW1ld+Z7fb4fF45P6yerWkS8O8efPgcrkC9q/VKisF9soZCdxut6qlOS0tTXVM/aezk4Qqs55zRW++w7WC79mzB5s3b0ZDQ0PA8j/96U948803A+ogVm8diIiIfgzatA/up59+imeffRZ33303unfvjttvvx3V1dV4//33UVhY2OpBbGazWX59rAxcQvXDXbBgAbKysmA0GmEymXT/4ILT6YTdble1vFksFs3tnU4n3G43srKyVP05g3VnkIJfaUoupbKyMrmc/t0cpO/8KdfXs/9gWlpXVqsV/fr101V+6dfS/P9YUP7IiNPpVH1vsVhgs9kCWrWl1ulgdRTuXNGT70WLFqkCZf8y+Xw+1NbWYv78+Rg4cCAGDx6MiRMn4r333kNVVRWcTicGDBgQtg6JiIhIv0uEECIWCbvdbqxfv14VWO7duxc33ngjfD4fdu3aBY/Hg6SkJGRnZ6NTp05B07Jarfx1Lbooeb1eNDQ0oGfPnjh79iw++ugjNDQ0wGQyYciQIZq/akZERESt06YtuDfeeCMA9ShyonimbGXv1KkTxo4d2845IiIiin9t2geXiIiIiCjWGOASERERUVyJWYBrNBrRtWvXqKTVs2fPqKRDRERERPEvZoPMiIiIiIjaA7soEBEREVFcYYBLRERERHGFAS4RERERxRUGuEREREQUVxjgEhEREVFcYYBLRERERHGFAS4RERERxZWYBbg+nw9NTU1RTbOxsTGq6RERERFR/IlZgHvo0CH84Q9/iGqas2bNimp6RERERBR/Lm2PnZaWluLBBx/UtW5ZWRnMZnOMc0RERERE8aJd+uDm5OTA6/XCYrEAAN5//314vV7Vv4ULFwIAjEZje2SRiIiIiC5S7TrI7O9//zs6dOiArKysgO8ee+wxdO7cGcnJybrTMxqNsNvtLcqL1WqF1WpVLbPb7W0eYGdkZATko6253W4YjUYYjUY4nc6A7+12OzIyMgKWxaKunE6nnBe3261rG/+8XAh16p8H/88XyvlHREQUD8IGuFarNWSw01I1NTVobGzE4MGDVcuVA9N69OgRUZperxeLFi2KSv7aS2VlZVTruSXy8vJgsVjg9XrbPTDMz8+HzWaD1+uNq64qeo7zokWL4PV62yhHRERE8SNkgOt0OuFyueTPhYWFUdvxJ598AgC46aab5GXffPMNHn74YfnzxIkTo7Y/0s/j8aB3797tnQ25xbZv377tnBMiIiK6mETURcHj8URtxx9//DEAIDs7W15WWFiIzMxM+fNvfvObiNL076KgbH0O1QJtNBrhcrngcrlgNBoDWi2Vr8m1XpUrX+kbjcaA1/f+MjIygqanfHUtvaLW+qfcxv87PfWktb5UTgBwOByadZaRkQGHwwGPx6NZ1mjVld1ul7uu5Ofny2lpdY+Q0tTbhcGff5606lDPuRTJcVAe52Dnn1YXBf9zwr9LjpSuMr/hzkciIqJ4EzLAtVqt8kAwACgqKorajnfv3g38/+3dsWvbTBgG8OdbOmSJl4Z0KNwSXLAGZwwoQ4egsRAot3TppFFDpgwmGA+eNSpzMwiDIdk0dBPtVjzIxqKLtgzJ4L8g6RDuPkmWbdmV7cY8PzDE9uXufBb49d17ZwBfv37Fu3fvUKvVcHNzg48fP1ZS/9XVFYIg0JvWPM+DbduFgYna8KaW5fNl+v2+rseyrEzOsO/7ME0TnufpMvV6fWZQoYIXVdZxHJimWRicqSXq9A0ALMuCYRg6MFNL+Kq+WcHVvPJRFEFKqdtQZfLB/mAwgOM4EEJgMplgMBisZaza7TbCMAQAXX4dKQpFfbIsayqHN45j/XwYhrBtOxNc5sfVsqzSgeWi60+RUsJ13cz14Lru1HsUBIHeyDmZTJAkydZTTYiIiDZp4Qyu7/v6g7KqD8koivD4+IiTkxP8/v0b9/f3GI1G2Nvbw/HxcSVtjMdjCCH0fSklHMdZqa50wNFqtTKPdbtdOI6TGZtWq4UkSQoDlTiOUa/X9f12uw3HcTAcDhf2o9lsQgih6+10OrAsK5N3rP4u2mzX6XQghJgqL4RAp9NZ2H4ZVY7VJnS7XViWlemT7/vwPA++78P3fSRJgm/fvunnDcOA4zhwXVeXD8MwM64fPnyodMUjiiIEQTD1JdPzPARBkPmClH89juNkUo2IiIh23VbOwf3x4wcAZDaYPT094fT0tLI2zs/P9dI28PIhv44NaEmSwHVdHews8unTJ738D7wEKGX6JaVEkiSZTUdxHOtUgTLywbVSr9cRx3GpOv7GsmO1CUmSFOZ6p9MEAEzNHqu8YDXzrazr1AP1BajRaGQeV/eHw+FObcIjIiL6G1s5Juz79+8AgLOzM/3YwcEBrq+vK2tDLbdPJhMIIXRQueoxYvOkl7fTt6IZ73TaAfB/fum8GUyVblGUIpJeFk/flg3mq5xtnGeZsXoNhsNhJoc3DEOd+rFJo9Foo+0RERH9y7YS4Badf/vmzRvs7+9X1kY6kB0MBjrPcTweV9YGAAgh0O/3V+pXOgCfFaD4vg/XdaeW9oGXmdfb29vSbc+aqY3jOJNrvS7LjtUs+WC8THrHLEKIwmsif4JDPkdavV9SSvR6PZ2TvK5Z1PRMbZq6//nz57W0S0RE9BptPMBV+bf582+rbiOdBqAsykNcZZn+8vISQRBkAle10z0/K6uC1fTmoyiKZs6eRlEE27an8mwVlb+azx+dNVOtyuf7miSJzpcta5UZ32XGahYVcKbL27a9dF/yfUrXJ6WEaZrwfR9SSggh8OXLF/28ur7ULO14PJ4aj1XSMOZdf4ZhwLKsqdeqro+ygbWabX6tM+ZERERlbCwH9+7uDhcXF3h4eAAA/Pz5E+/fv8fbt2/x69evStsyDEMve6eD3Hl5uK1WC6ZpolarQQgxdTrALFJKNBoNmKaZCWqKDuhXxzepY8IUz/MKA45erwcA+viotDAM9evMH0ulnstLl1/U13na7XbmC0TZ/19mrObVMRqNYNu2DvbCMCz8Nbxl+5QOHtN9GgwGU9dS+j1TgXD+PTBNE81ms9S1VOb6831/6uiwdeWWExERvWb/PT8/P6+j4iiK0Ov1Kv3wlVJu/Ve+iIiIiOjftpUcXCIiIiKidWGAS0REREQ7hQEuEREREe2UtQW4tVoNh4eHldZ5dHRUaX1EREREtHvWtsmMiIiIiGgbmKJARERERDuFAS4RERER7RQGuERERES0UxjgEhEREdFOYYBLRERERDvlD+5laUft+cWPAAAAAElFTkSuQmCC;" parent="1" vertex="1">
          <mxGeometry x="214" y="640" width="466" height="147.3" as="geometry" />
        </mxCell>
        <mxCell id="X7gj1l4jZisrPeL8IL18-45" value="&lt;font style=&quot;font-size: 16px;&quot;&gt;Coalitions&lt;/font&gt;" style="text;html=1;strokeColor=none;fillColor=none;align=center;verticalAlign=middle;whiteSpace=wrap;rounded=0;" parent="1" vertex="1">
          <mxGeometry x="11.75" y="47" width="85" height="30" as="geometry" />
        </mxCell>
        <mxCell id="X7gj1l4jZisrPeL8IL18-46" value="Feature 1&lt;br style=&quot;font-size: 14px;&quot;&gt;" style="text;html=1;strokeColor=none;fillColor=none;align=center;verticalAlign=middle;whiteSpace=wrap;rounded=0;fontSize=14;labelBackgroundColor=#B5739D;fontFamily=Tahoma;fontStyle=0" parent="1" vertex="1">
          <mxGeometry x="117.5" y="-120" width="70" height="40" as="geometry" />
        </mxCell>
        <mxCell id="X7gj1l4jZisrPeL8IL18-47" value="Feature 2" style="text;html=1;strokeColor=none;fillColor=none;align=center;verticalAlign=middle;whiteSpace=wrap;rounded=0;fontSize=14;labelBackgroundColor=#00CC66;fontFamily=Tahoma;fontStyle=0" parent="1" vertex="1">
          <mxGeometry x="237.5" y="-120" width="80" height="40" as="geometry" />
        </mxCell>
        <mxCell id="X7gj1l4jZisrPeL8IL18-48" value="Feature 3" style="text;html=1;strokeColor=none;fillColor=none;align=center;verticalAlign=middle;whiteSpace=wrap;rounded=0;fontSize=14;labelBackgroundColor=#FF9933;fontFamily=Tahoma;fontStyle=0" parent="1" vertex="1">
          <mxGeometry x="357.5" y="-120" width="100" height="40" as="geometry" />
        </mxCell>
        <mxCell id="X7gj1l4jZisrPeL8IL18-50" value="Set of all Features" style="text;html=1;strokeColor=none;fillColor=none;align=center;verticalAlign=middle;whiteSpace=wrap;rounded=0;fontSize=16;fontFamily=Tahoma;fontStyle=0" parent="1" vertex="1">
          <mxGeometry x="0.879999999999999" y="-115" width="98.25" height="30" as="geometry" />
        </mxCell>
        <mxCell id="X7gj1l4jZisrPeL8IL18-51" value="Feature 1&lt;br style=&quot;font-size: 14px;&quot;&gt;" style="text;html=1;strokeColor=none;fillColor=none;align=center;verticalAlign=middle;whiteSpace=wrap;rounded=0;fontSize=14;labelBackgroundColor=#B5739D;fontFamily=Tahoma;fontStyle=0" parent="1" vertex="1">
          <mxGeometry x="225.25" y="-10" width="77.5" height="40" as="geometry" />
        </mxCell>
        <mxCell id="X7gj1l4jZisrPeL8IL18-52" value="Feature 2" style="text;html=1;strokeColor=none;fillColor=none;align=center;verticalAlign=middle;whiteSpace=wrap;rounded=0;fontSize=14;labelBackgroundColor=#00CC66;fontFamily=Tahoma;fontStyle=0" parent="1" vertex="1">
          <mxGeometry x="351.5" y="-10" width="80" height="40" as="geometry" />
        </mxCell>
        <mxCell id="X7gj1l4jZisrPeL8IL18-53" value="Feature 3" style="text;html=1;strokeColor=none;fillColor=none;align=center;verticalAlign=middle;whiteSpace=wrap;rounded=0;fontSize=14;labelBackgroundColor=#FF9933;fontFamily=Tahoma;fontStyle=0" parent="1" vertex="1">
          <mxGeometry x="341.5" y="42" width="100" height="40" as="geometry" />
        </mxCell>
        <mxCell id="X7gj1l4jZisrPeL8IL18-54" value="Feature 1&lt;br style=&quot;font-size: 14px;&quot;&gt;" style="text;html=1;strokeColor=none;fillColor=none;align=center;verticalAlign=middle;whiteSpace=wrap;rounded=0;fontSize=14;labelBackgroundColor=#B5739D;fontFamily=Tahoma;fontStyle=0" parent="1" vertex="1">
          <mxGeometry x="224" y="42" width="77.5" height="40" as="geometry" />
        </mxCell>
        <mxCell id="X7gj1l4jZisrPeL8IL18-56" value="Feature 2" style="text;html=1;strokeColor=none;fillColor=none;align=center;verticalAlign=middle;whiteSpace=wrap;rounded=0;fontSize=14;labelBackgroundColor=#00CC66;fontFamily=Tahoma;fontStyle=0" parent="1" vertex="1">
          <mxGeometry x="222.75" y="95" width="80" height="40" as="geometry" />
        </mxCell>
        <mxCell id="X7gj1l4jZisrPeL8IL18-57" value="Feature 3" style="text;html=1;strokeColor=none;fillColor=none;align=center;verticalAlign=middle;whiteSpace=wrap;rounded=0;fontSize=14;labelBackgroundColor=#FF9933;fontFamily=Tahoma;fontStyle=0" parent="1" vertex="1">
          <mxGeometry x="344" y="95" width="100" height="40" as="geometry" />
        </mxCell>
        <mxCell id="X7gj1l4jZisrPeL8IL18-58" value="" style="rounded=1;whiteSpace=wrap;html=1;fillColor=none;" parent="1" vertex="1">
          <mxGeometry x="108" y="-130" width="342" height="60" as="geometry" />
        </mxCell>
        <mxCell id="X7gj1l4jZisrPeL8IL18-63" value="Feature 1&lt;br style=&quot;font-size: 14px;&quot;&gt;" style="text;html=1;strokeColor=none;fillColor=none;align=center;verticalAlign=middle;whiteSpace=wrap;rounded=0;fontSize=14;labelBackgroundColor=#B5739D;fontFamily=Tahoma;fontStyle=0" parent="1" vertex="1">
          <mxGeometry x="119.25" y="-10" width="77.5" height="40" as="geometry" />
        </mxCell>
        <mxCell id="X7gj1l4jZisrPeL8IL18-64" value="Feature 2" style="text;html=1;strokeColor=none;fillColor=none;align=center;verticalAlign=middle;whiteSpace=wrap;rounded=0;fontSize=14;labelBackgroundColor=#00CC66;fontFamily=Tahoma;fontStyle=0" parent="1" vertex="1">
          <mxGeometry x="119.25" y="42" width="80" height="40" as="geometry" />
        </mxCell>
        <mxCell id="X7gj1l4jZisrPeL8IL18-65" value="Feature 3" style="text;html=1;strokeColor=none;fillColor=none;align=center;verticalAlign=middle;whiteSpace=wrap;rounded=0;fontSize=14;labelBackgroundColor=#FF9933;fontFamily=Tahoma;fontStyle=0" parent="1" vertex="1">
          <mxGeometry x="108" y="95" width="100" height="40" as="geometry" />
        </mxCell>
        <mxCell id="X7gj1l4jZisrPeL8IL18-67" value="" style="rounded=1;whiteSpace=wrap;html=1;fillColor=none;" parent="1" vertex="1">
          <mxGeometry x="115.5" y="44.5" width="85" height="35" as="geometry" />
        </mxCell>
        <mxCell id="X7gj1l4jZisrPeL8IL18-68" value="" style="rounded=1;whiteSpace=wrap;html=1;fillColor=none;" parent="1" vertex="1">
          <mxGeometry x="115.5" y="97.5" width="85" height="35" as="geometry" />
        </mxCell>
        <mxCell id="X7gj1l4jZisrPeL8IL18-69" value="Feature 1&lt;br style=&quot;font-size: 14px;&quot;&gt;" style="text;html=1;strokeColor=none;fillColor=none;align=center;verticalAlign=middle;whiteSpace=wrap;rounded=0;fontSize=14;labelBackgroundColor=#B5739D;fontFamily=Tahoma;fontStyle=0" parent="1" vertex="1">
          <mxGeometry x="467" y="40.5" width="70" height="40" as="geometry" />
        </mxCell>
        <mxCell id="X7gj1l4jZisrPeL8IL18-70" value="Feature 2" style="text;html=1;strokeColor=none;fillColor=none;align=center;verticalAlign=middle;whiteSpace=wrap;rounded=0;fontSize=14;labelBackgroundColor=#00CC66;fontFamily=Tahoma;fontStyle=0" parent="1" vertex="1">
          <mxGeometry x="560" y="40.5" width="80" height="40" as="geometry" />
        </mxCell>
        <mxCell id="X7gj1l4jZisrPeL8IL18-71" value="Feature 3" style="text;html=1;strokeColor=none;fillColor=none;align=center;verticalAlign=middle;whiteSpace=wrap;rounded=0;fontSize=14;labelBackgroundColor=#FF9933;fontFamily=Tahoma;fontStyle=0" parent="1" vertex="1">
          <mxGeometry x="650" y="40.5" width="100" height="40" as="geometry" />
        </mxCell>
        <mxCell id="X7gj1l4jZisrPeL8IL18-74" value="" style="curved=1;endArrow=classic;html=1;rounded=0;exitX=1;exitY=0.5;exitDx=0;exitDy=0;entryX=0.469;entryY=1.115;entryDx=0;entryDy=0;entryPerimeter=0;" parent="1" source="X7gj1l4jZisrPeL8IL18-16" target="X7gj1l4jZisrPeL8IL18-72" edge="1">
          <mxGeometry width="50" height="50" relative="1" as="geometry">
            <mxPoint x="320" y="200" as="sourcePoint" />
            <mxPoint x="280" y="160" as="targetPoint" />
            <Array as="points">
              <mxPoint x="370" y="200" />
              <mxPoint x="480" y="170" />
            </Array>
          </mxGeometry>
        </mxCell>
        <mxCell id="X7gj1l4jZisrPeL8IL18-75" value="&lt;font style=&quot;font-size: 14px;&quot;&gt;of this coalition&lt;/font&gt;" style="text;html=1;strokeColor=none;fillColor=none;align=center;verticalAlign=middle;whiteSpace=wrap;rounded=0;" parent="1" vertex="1">
          <mxGeometry x="230" y="170" width="140" height="30" as="geometry" />
        </mxCell>
        <mxCell id="X7gj1l4jZisrPeL8IL18-76" value="&lt;font style=&quot;font-size: 14px;&quot;&gt;Game: model&lt;br&gt;Player: feature&lt;br&gt;Joining order: Permutation&lt;br&gt;Joint Payoff: Prediction&lt;br&gt;Team: coalition&lt;/font&gt;" style="text;html=1;strokeColor=none;fillColor=none;align=center;verticalAlign=middle;whiteSpace=wrap;rounded=0;" parent="1" vertex="1">
          <mxGeometry x="540" y="-160" width="200" height="100" as="geometry" />
        </mxCell>
        <mxCell id="GSG6eR08qMsW1jf1x-5z-1" value="&lt;font style=&quot;font-size: 20px;&quot;&gt;&lt;b&gt;SHAP value calculation explained&lt;/b&gt;&lt;font style=&quot;font-size: 20px;&quot;&gt;&lt;b&gt;&lt;br&gt;&lt;/b&gt;&lt;/font&gt;&lt;/font&gt;" style="text;html=1;strokeColor=none;fillColor=none;align=center;verticalAlign=middle;whiteSpace=wrap;rounded=0;" vertex="1" parent="1">
          <mxGeometry x="216.5" y="-210" width="350" height="30" as="geometry" />
        </mxCell>
      </root>
    </mxGraphModel>
  </diagram>
</mxfile>
